<?xml version="1.0" encoding="UTF-8" standalone="no"?>
<!DOCTYPE svg PUBLIC "-//W3C//DTD SVG 1.1//EN"
 "http://www.w3.org/Graphics/SVG/1.1/DTD/svg11.dtd">
<!-- Generated by graphviz version 2.43.0 (0)
 -->
<!-- Title: discriminator Pages: 1 -->
<svg width="5368pt" height="160pt"
 viewBox="0.00 0.00 5368.00 160.00" xmlns="http://www.w3.org/2000/svg" xmlns:xlink="http://www.w3.org/1999/xlink">
<g id="graph0" class="graph" transform="scale(1 1) rotate(0) translate(4 156)">
<title>discriminator</title>
<polygon fill="white" stroke="transparent" points="-4,4 -4,-156 5364,-156 5364,4 -4,4"/>
<g id="clust1" class="cluster">
<title>cluster_2</title>
<polygon fill="none" stroke="black" stroke-dasharray="5,2" points="155,-8 155,-144 5352,-144 5352,-8 155,-8"/>
<text text-anchor="middle" x="188" y="-130.4" font-family="Times,serif" font-size="12.00">Sequential</text>
</g>
<g id="clust2" class="cluster">
<title>cluster_3</title>
<polygon fill="none" stroke="black" stroke-dasharray="5,2" points="783,-16 783,-115 1837,-115 1837,-16 783,-16"/>
<text text-anchor="middle" x="805.5" y="-101.4" font-family="Times,serif" font-size="12.00">Block</text>
</g>
<g id="clust3" class="cluster">
<title>cluster_4</title>
<polygon fill="none" stroke="black" stroke-dasharray="5,2" points="1857,-16 1857,-115 2911,-115 2911,-16 1857,-16"/>
<text text-anchor="middle" x="1879.5" y="-101.4" font-family="Times,serif" font-size="12.00">Block</text>
</g>
<g id="clust4" class="cluster">
<title>cluster_5</title>
<polygon fill="none" stroke="black" stroke-dasharray="5,2" points="2931,-16 2931,-115 3931,-115 3931,-16 2931,-16"/>
<text text-anchor="middle" x="2953.5" y="-101.4" font-family="Times,serif" font-size="12.00">Block</text>
</g>
<!-- 0 -->
<g id="node1" class="node">
<title>0</title>
<polygon fill="lightyellow" stroke="transparent" points="127,-71 0,-71 0,-39 127,-39 127,-71"/>
<polygon fill="none" stroke="black" points="0.5,-39 0.5,-71 61.5,-71 61.5,-39 0.5,-39"/>
<text text-anchor="start" x="5.5" y="-58" font-family="Linux libertine" font-size="10.00">input&#45;tensor</text>
<text text-anchor="start" x="14.5" y="-47" font-family="Linux libertine" font-size="10.00">depth:0</text>
<polygon fill="none" stroke="black" points="61.5,-39 61.5,-71 127.5,-71 127.5,-39 61.5,-39"/>
<text text-anchor="start" x="66.5" y="-52.5" font-family="Linux libertine" font-size="10.00">(1, 3, 64, 64)</text>
</g>
<!-- 1 -->
<g id="node2" class="node">
<title>1</title>
<polygon fill="#c1ffc1" stroke="transparent" points="325,-76 163,-76 163,-34 325,-34 325,-76"/>
<polygon fill="none" stroke="black" points="163,-34 163,-76 207,-76 207,-34 163,-34"/>
<text text-anchor="start" x="168" y="-58" font-family="Linux libertine" font-size="10.00">Conv2d</text>
<text text-anchor="start" x="168.5" y="-47" font-family="Linux libertine" font-size="10.00">depth:2</text>
<polygon fill="none" stroke="black" points="207,-55 207,-76 251,-76 251,-55 207,-55"/>
<text text-anchor="start" x="216.5" y="-63" font-family="Linux libertine" font-size="10.00">input:</text>
<polygon fill="none" stroke="black" points="251,-55 251,-76 325,-76 325,-55 251,-55"/>
<text text-anchor="start" x="258.5" y="-63" font-family="Linux libertine" font-size="10.00">(1, 3, 64, 64) </text>
<polygon fill="none" stroke="black" points="207,-34 207,-55 251,-55 251,-34 207,-34"/>
<text text-anchor="start" x="212" y="-42" font-family="Linux libertine" font-size="10.00">output: </text>
<polygon fill="none" stroke="black" points="251,-34 251,-55 325,-55 325,-34 251,-34"/>
<text text-anchor="start" x="256" y="-42" font-family="Linux libertine" font-size="10.00">(1, 64, 64, 64) </text>
</g>
<!-- 0&#45;&gt;1 -->
<g id="edge1" class="edge">
<title>0&#45;&gt;1</title>
<path fill="none" stroke="black" d="M127.18,-55C135.48,-55 144.13,-55 152.78,-55"/>
<polygon fill="black" stroke="black" points="152.92,-58.5 162.92,-55 152.92,-51.5 152.92,-58.5"/>
</g>
<!-- 2 -->
<g id="node3" class="node">
<title>2</title>
<polygon fill="#c1ffc1" stroke="transparent" points="541,-76 361,-76 361,-34 541,-34 541,-76"/>
<polygon fill="none" stroke="black" points="361,-34 361,-76 423,-76 423,-34 361,-34"/>
<text text-anchor="start" x="366" y="-58" font-family="Linux libertine" font-size="10.00">LeakyReLU</text>
<text text-anchor="start" x="375.5" y="-47" font-family="Linux libertine" font-size="10.00">depth:2</text>
<polygon fill="none" stroke="black" points="423,-55 423,-76 467,-76 467,-55 423,-55"/>
<text text-anchor="start" x="432.5" y="-63" font-family="Linux libertine" font-size="10.00">input:</text>
<polygon fill="none" stroke="black" points="467,-55 467,-76 541,-76 541,-55 467,-55"/>
<text text-anchor="start" x="472" y="-63" font-family="Linux libertine" font-size="10.00">(1, 64, 64, 64) </text>
<polygon fill="none" stroke="black" points="423,-34 423,-55 467,-55 467,-34 423,-34"/>
<text text-anchor="start" x="428" y="-42" font-family="Linux libertine" font-size="10.00">output: </text>
<polygon fill="none" stroke="black" points="467,-34 467,-55 541,-55 541,-34 467,-34"/>
<text text-anchor="start" x="472" y="-42" font-family="Linux libertine" font-size="10.00">(1, 64, 64, 64) </text>
</g>
<!-- 1&#45;&gt;2 -->
<g id="edge2" class="edge">
<title>1&#45;&gt;2</title>
<path fill="none" stroke="black" d="M325.14,-55C333.53,-55 342.14,-55 350.71,-55"/>
<polygon fill="black" stroke="black" points="350.75,-58.5 360.75,-55 350.75,-51.5 350.75,-58.5"/>
</g>
<!-- 3 -->
<g id="node4" class="node">
<title>3</title>
<polygon fill="#c1ffc1" stroke="transparent" points="755,-76 577,-76 577,-34 755,-34 755,-76"/>
<polygon fill="none" stroke="black" points="577,-34 577,-76 637,-76 637,-34 577,-34"/>
<text text-anchor="start" x="582" y="-58" font-family="Linux libertine" font-size="10.00">MaxPool2d</text>
<text text-anchor="start" x="590.5" y="-47" font-family="Linux libertine" font-size="10.00">depth:2</text>
<polygon fill="none" stroke="black" points="637,-55 637,-76 681,-76 681,-55 637,-55"/>
<text text-anchor="start" x="646.5" y="-63" font-family="Linux libertine" font-size="10.00">input:</text>
<polygon fill="none" stroke="black" points="681,-55 681,-76 755,-76 755,-55 681,-55"/>
<text text-anchor="start" x="686" y="-63" font-family="Linux libertine" font-size="10.00">(1, 64, 64, 64) </text>
<polygon fill="none" stroke="black" points="637,-34 637,-55 681,-55 681,-34 637,-34"/>
<text text-anchor="start" x="642" y="-42" font-family="Linux libertine" font-size="10.00">output: </text>
<polygon fill="none" stroke="black" points="681,-34 681,-55 755,-55 755,-34 681,-34"/>
<text text-anchor="start" x="686" y="-42" font-family="Linux libertine" font-size="10.00">(1, 64, 32, 32) </text>
</g>
<!-- 2&#45;&gt;3 -->
<g id="edge3" class="edge">
<title>2&#45;&gt;3</title>
<path fill="none" stroke="black" d="M541.1,-55C549.62,-55 558.29,-55 566.89,-55"/>
<polygon fill="black" stroke="black" points="566.94,-58.5 576.94,-55 566.94,-51.5 566.94,-58.5"/>
</g>
<!-- 4 -->
<g id="node5" class="node">
<title>4</title>
<polygon fill="#c1ffc1" stroke="transparent" points="971,-76 791,-76 791,-34 971,-34 971,-76"/>
<polygon fill="none" stroke="black" points="791,-34 791,-76 847,-76 847,-34 791,-34"/>
<text text-anchor="start" x="796" y="-58" font-family="Linux libertine" font-size="10.00">Sequential</text>
<text text-anchor="start" x="802.5" y="-47" font-family="Linux libertine" font-size="10.00">depth:3</text>
<polygon fill="none" stroke="black" points="847,-55 847,-76 891,-76 891,-55 847,-55"/>
<text text-anchor="start" x="856.5" y="-63" font-family="Linux libertine" font-size="10.00">input:</text>
<polygon fill="none" stroke="black" points="891,-55 891,-76 971,-76 971,-55 891,-55"/>
<text text-anchor="start" x="899" y="-63" font-family="Linux libertine" font-size="10.00">(1, 64, 32, 32) </text>
<polygon fill="none" stroke="black" points="847,-34 847,-55 891,-55 891,-34 847,-34"/>
<text text-anchor="start" x="852" y="-42" font-family="Linux libertine" font-size="10.00">output: </text>
<polygon fill="none" stroke="black" points="891,-34 891,-55 971,-55 971,-34 891,-34"/>
<text text-anchor="start" x="896" y="-42" font-family="Linux libertine" font-size="10.00">(1, 128, 32, 32) </text>
</g>
<!-- 3&#45;&gt;4 -->
<g id="edge4" class="edge">
<title>3&#45;&gt;4</title>
<path fill="none" stroke="black" d="M755.17,-55C763.65,-55 772.28,-55 780.85,-55"/>
<polygon fill="black" stroke="black" points="780.86,-58.5 790.86,-55 780.86,-51.5 780.86,-58.5"/>
</g>
<!-- 5 -->
<g id="node6" class="node">
<title>5</title>
<polygon fill="#c1ffc1" stroke="transparent" points="1187,-86 1007,-86 1007,-44 1187,-44 1187,-86"/>
<polygon fill="none" stroke="black" points="1007,-44 1007,-86 1063,-86 1063,-44 1007,-44"/>
<text text-anchor="start" x="1012" y="-68" font-family="Linux libertine" font-size="10.00">Sequential</text>
<text text-anchor="start" x="1018.5" y="-57" font-family="Linux libertine" font-size="10.00">depth:3</text>
<polygon fill="none" stroke="black" points="1063,-65 1063,-86 1107,-86 1107,-65 1063,-65"/>
<text text-anchor="start" x="1072.5" y="-73" font-family="Linux libertine" font-size="10.00">input:</text>
<polygon fill="none" stroke="black" points="1107,-65 1107,-86 1187,-86 1187,-65 1107,-65"/>
<text text-anchor="start" x="1112" y="-73" font-family="Linux libertine" font-size="10.00">(1, 128, 32, 32) </text>
<polygon fill="none" stroke="black" points="1063,-44 1063,-65 1107,-65 1107,-44 1063,-44"/>
<text text-anchor="start" x="1068" y="-52" font-family="Linux libertine" font-size="10.00">output: </text>
<polygon fill="none" stroke="black" points="1107,-44 1107,-65 1187,-65 1187,-44 1107,-44"/>
<text text-anchor="start" x="1112" y="-52" font-family="Linux libertine" font-size="10.00">(1, 128, 32, 32) </text>
</g>
<!-- 4&#45;&gt;5 -->
<g id="edge5" class="edge">
<title>4&#45;&gt;5</title>
<path fill="none" stroke="black" d="M971.21,-59.17C979.7,-59.57 988.34,-59.97 996.92,-60.37"/>
<polygon fill="black" stroke="black" points="996.79,-63.87 1006.94,-60.84 997.11,-56.88 996.79,-63.87"/>
</g>
<!-- 6 -->
<g id="node7" class="node">
<title>6</title>
<polygon fill="aliceblue" stroke="transparent" points="1406,-76 1223,-76 1223,-34 1406,-34 1406,-76"/>
<polygon fill="none" stroke="black" points="1223.5,-34 1223.5,-76 1266.5,-76 1266.5,-34 1223.5,-34"/>
<text text-anchor="start" x="1237" y="-58" font-family="Linux libertine" font-size="10.00">add</text>
<text text-anchor="start" x="1228.5" y="-47" font-family="Linux libertine" font-size="10.00">depth:3</text>
<polygon fill="none" stroke="black" points="1266.5,-55 1266.5,-76 1310.5,-76 1310.5,-55 1266.5,-55"/>
<text text-anchor="start" x="1276" y="-63" font-family="Linux libertine" font-size="10.00">input:</text>
<polygon fill="none" stroke="black" points="1310.5,-55 1310.5,-76 1406.5,-76 1406.5,-55 1310.5,-55"/>
<text text-anchor="start" x="1315.5" y="-63" font-family="Linux libertine" font-size="10.00">2 x (1, 128, 32, 32) </text>
<polygon fill="none" stroke="black" points="1266.5,-34 1266.5,-55 1310.5,-55 1310.5,-34 1266.5,-34"/>
<text text-anchor="start" x="1271.5" y="-42" font-family="Linux libertine" font-size="10.00">output: </text>
<polygon fill="none" stroke="black" points="1310.5,-34 1310.5,-55 1406.5,-55 1406.5,-34 1310.5,-34"/>
<text text-anchor="start" x="1323.5" y="-42" font-family="Linux libertine" font-size="10.00">(1, 128, 32, 32) </text>
</g>
<!-- 4&#45;&gt;6 -->
<g id="edge6" class="edge">
<title>4&#45;&gt;6</title>
<path fill="none" stroke="black" d="M971.24,-38.96C983.23,-37.32 995.39,-35.92 1007,-35 1086.75,-28.66 1107.25,-28.73 1187,-35 1195.36,-35.66 1204.01,-36.56 1212.68,-37.61"/>
<polygon fill="black" stroke="black" points="1212.48,-41.11 1222.84,-38.91 1213.37,-34.17 1212.48,-41.11"/>
</g>
<!-- 5&#45;&gt;6 -->
<g id="edge7" class="edge">
<title>5&#45;&gt;6</title>
<path fill="none" stroke="black" d="M1187.21,-60.86C1195.7,-60.47 1204.34,-60.07 1212.93,-59.67"/>
<polygon fill="black" stroke="black" points="1213.14,-63.16 1222.97,-59.2 1212.82,-56.17 1213.14,-63.16"/>
</g>
<!-- 7 -->
<g id="node8" class="node">
<title>7</title>
<polygon fill="#c1ffc1" stroke="transparent" points="1609,-76 1442,-76 1442,-34 1609,-34 1609,-76"/>
<polygon fill="none" stroke="black" points="1442.5,-34 1442.5,-76 1485.5,-76 1485.5,-34 1442.5,-34"/>
<text text-anchor="start" x="1448.5" y="-58" font-family="Linux libertine" font-size="10.00">PReLU</text>
<text text-anchor="start" x="1447.5" y="-47" font-family="Linux libertine" font-size="10.00">depth:3</text>
<polygon fill="none" stroke="black" points="1485.5,-55 1485.5,-76 1529.5,-76 1529.5,-55 1485.5,-55"/>
<text text-anchor="start" x="1495" y="-63" font-family="Linux libertine" font-size="10.00">input:</text>
<polygon fill="none" stroke="black" points="1529.5,-55 1529.5,-76 1609.5,-76 1609.5,-55 1529.5,-55"/>
<text text-anchor="start" x="1534.5" y="-63" font-family="Linux libertine" font-size="10.00">(1, 128, 32, 32) </text>
<polygon fill="none" stroke="black" points="1485.5,-34 1485.5,-55 1529.5,-55 1529.5,-34 1485.5,-34"/>
<text text-anchor="start" x="1490.5" y="-42" font-family="Linux libertine" font-size="10.00">output: </text>
<polygon fill="none" stroke="black" points="1529.5,-34 1529.5,-55 1609.5,-55 1609.5,-34 1529.5,-34"/>
<text text-anchor="start" x="1534.5" y="-42" font-family="Linux libertine" font-size="10.00">(1, 128, 32, 32) </text>
</g>
<!-- 6&#45;&gt;7 -->
<g id="edge8" class="edge">
<title>6&#45;&gt;7</title>
<path fill="none" stroke="black" d="M1406.26,-55C1414.64,-55 1423.14,-55 1431.54,-55"/>
<polygon fill="black" stroke="black" points="1431.72,-58.5 1441.72,-55 1431.72,-51.5 1431.72,-58.5"/>
</g>
<!-- 8 -->
<g id="node9" class="node">
<title>8</title>
<polygon fill="#c1ffc1" stroke="transparent" points="1829,-76 1645,-76 1645,-34 1829,-34 1829,-76"/>
<polygon fill="none" stroke="black" points="1645,-34 1645,-76 1705,-76 1705,-34 1645,-34"/>
<text text-anchor="start" x="1650" y="-58" font-family="Linux libertine" font-size="10.00">MaxPool2d</text>
<text text-anchor="start" x="1658.5" y="-47" font-family="Linux libertine" font-size="10.00">depth:3</text>
<polygon fill="none" stroke="black" points="1705,-55 1705,-76 1749,-76 1749,-55 1705,-55"/>
<text text-anchor="start" x="1714.5" y="-63" font-family="Linux libertine" font-size="10.00">input:</text>
<polygon fill="none" stroke="black" points="1749,-55 1749,-76 1829,-76 1829,-55 1749,-55"/>
<text text-anchor="start" x="1754" y="-63" font-family="Linux libertine" font-size="10.00">(1, 128, 32, 32) </text>
<polygon fill="none" stroke="black" points="1705,-34 1705,-55 1749,-55 1749,-34 1705,-34"/>
<text text-anchor="start" x="1710" y="-42" font-family="Linux libertine" font-size="10.00">output: </text>
<polygon fill="none" stroke="black" points="1749,-34 1749,-55 1829,-55 1829,-34 1749,-34"/>
<text text-anchor="start" x="1754" y="-42" font-family="Linux libertine" font-size="10.00">(1, 128, 16, 16) </text>
</g>
<!-- 7&#45;&gt;8 -->
<g id="edge9" class="edge">
<title>7&#45;&gt;8</title>
<path fill="none" stroke="black" d="M1609.3,-55C1617.68,-55 1626.27,-55 1634.82,-55"/>
<polygon fill="black" stroke="black" points="1634.82,-58.5 1644.82,-55 1634.82,-51.5 1634.82,-58.5"/>
</g>
<!-- 9 -->
<g id="node10" class="node">
<title>9</title>
<polygon fill="#c1ffc1" stroke="transparent" points="2045,-76 1865,-76 1865,-34 2045,-34 2045,-76"/>
<polygon fill="none" stroke="black" points="1865,-34 1865,-76 1921,-76 1921,-34 1865,-34"/>
<text text-anchor="start" x="1870" y="-58" font-family="Linux libertine" font-size="10.00">Sequential</text>
<text text-anchor="start" x="1876.5" y="-47" font-family="Linux libertine" font-size="10.00">depth:3</text>
<polygon fill="none" stroke="black" points="1921,-55 1921,-76 1965,-76 1965,-55 1921,-55"/>
<text text-anchor="start" x="1930.5" y="-63" font-family="Linux libertine" font-size="10.00">input:</text>
<polygon fill="none" stroke="black" points="1965,-55 1965,-76 2045,-76 2045,-55 1965,-55"/>
<text text-anchor="start" x="1970" y="-63" font-family="Linux libertine" font-size="10.00">(1, 128, 16, 16) </text>
<polygon fill="none" stroke="black" points="1921,-34 1921,-55 1965,-55 1965,-34 1921,-34"/>
<text text-anchor="start" x="1926" y="-42" font-family="Linux libertine" font-size="10.00">output: </text>
<polygon fill="none" stroke="black" points="1965,-34 1965,-55 2045,-55 2045,-34 1965,-34"/>
<text text-anchor="start" x="1970" y="-42" font-family="Linux libertine" font-size="10.00">(1, 256, 16, 16) </text>
</g>
<!-- 8&#45;&gt;9 -->
<g id="edge10" class="edge">
<title>8&#45;&gt;9</title>
<path fill="none" stroke="black" d="M1829.29,-55C1837.64,-55 1846.13,-55 1854.54,-55"/>
<polygon fill="black" stroke="black" points="1854.76,-58.5 1864.76,-55 1854.76,-51.5 1854.76,-58.5"/>
</g>
<!-- 10 -->
<g id="node11" class="node">
<title>10</title>
<polygon fill="#c1ffc1" stroke="transparent" points="2261,-86 2081,-86 2081,-44 2261,-44 2261,-86"/>
<polygon fill="none" stroke="black" points="2081,-44 2081,-86 2137,-86 2137,-44 2081,-44"/>
<text text-anchor="start" x="2086" y="-68" font-family="Linux libertine" font-size="10.00">Sequential</text>
<text text-anchor="start" x="2092.5" y="-57" font-family="Linux libertine" font-size="10.00">depth:3</text>
<polygon fill="none" stroke="black" points="2137,-65 2137,-86 2181,-86 2181,-65 2137,-65"/>
<text text-anchor="start" x="2146.5" y="-73" font-family="Linux libertine" font-size="10.00">input:</text>
<polygon fill="none" stroke="black" points="2181,-65 2181,-86 2261,-86 2261,-65 2181,-65"/>
<text text-anchor="start" x="2186" y="-73" font-family="Linux libertine" font-size="10.00">(1, 256, 16, 16) </text>
<polygon fill="none" stroke="black" points="2137,-44 2137,-65 2181,-65 2181,-44 2137,-44"/>
<text text-anchor="start" x="2142" y="-52" font-family="Linux libertine" font-size="10.00">output: </text>
<polygon fill="none" stroke="black" points="2181,-44 2181,-65 2261,-65 2261,-44 2181,-44"/>
<text text-anchor="start" x="2186" y="-52" font-family="Linux libertine" font-size="10.00">(1, 256, 16, 16) </text>
</g>
<!-- 9&#45;&gt;10 -->
<g id="edge11" class="edge">
<title>9&#45;&gt;10</title>
<path fill="none" stroke="black" d="M2045.21,-59.17C2053.7,-59.57 2062.34,-59.97 2070.92,-60.37"/>
<polygon fill="black" stroke="black" points="2070.79,-63.87 2080.94,-60.84 2071.11,-56.88 2070.79,-63.87"/>
</g>
<!-- 11 -->
<g id="node12" class="node">
<title>11</title>
<polygon fill="aliceblue" stroke="transparent" points="2480,-76 2297,-76 2297,-34 2480,-34 2480,-76"/>
<polygon fill="none" stroke="black" points="2297.5,-34 2297.5,-76 2340.5,-76 2340.5,-34 2297.5,-34"/>
<text text-anchor="start" x="2311" y="-58" font-family="Linux libertine" font-size="10.00">add</text>
<text text-anchor="start" x="2302.5" y="-47" font-family="Linux libertine" font-size="10.00">depth:3</text>
<polygon fill="none" stroke="black" points="2340.5,-55 2340.5,-76 2384.5,-76 2384.5,-55 2340.5,-55"/>
<text text-anchor="start" x="2350" y="-63" font-family="Linux libertine" font-size="10.00">input:</text>
<polygon fill="none" stroke="black" points="2384.5,-55 2384.5,-76 2480.5,-76 2480.5,-55 2384.5,-55"/>
<text text-anchor="start" x="2389.5" y="-63" font-family="Linux libertine" font-size="10.00">2 x (1, 256, 16, 16) </text>
<polygon fill="none" stroke="black" points="2340.5,-34 2340.5,-55 2384.5,-55 2384.5,-34 2340.5,-34"/>
<text text-anchor="start" x="2345.5" y="-42" font-family="Linux libertine" font-size="10.00">output: </text>
<polygon fill="none" stroke="black" points="2384.5,-34 2384.5,-55 2480.5,-55 2480.5,-34 2384.5,-34"/>
<text text-anchor="start" x="2397.5" y="-42" font-family="Linux libertine" font-size="10.00">(1, 256, 16, 16) </text>
</g>
<!-- 9&#45;&gt;11 -->
<g id="edge12" class="edge">
<title>9&#45;&gt;11</title>
<path fill="none" stroke="black" d="M2045.24,-38.96C2057.23,-37.32 2069.39,-35.92 2081,-35 2160.75,-28.66 2181.25,-28.73 2261,-35 2269.36,-35.66 2278.01,-36.56 2286.68,-37.61"/>
<polygon fill="black" stroke="black" points="2286.48,-41.11 2296.84,-38.91 2287.37,-34.17 2286.48,-41.11"/>
</g>
<!-- 10&#45;&gt;11 -->
<g id="edge13" class="edge">
<title>10&#45;&gt;11</title>
<path fill="none" stroke="black" d="M2261.21,-60.86C2269.7,-60.47 2278.34,-60.07 2286.93,-59.67"/>
<polygon fill="black" stroke="black" points="2287.14,-63.16 2296.97,-59.2 2286.82,-56.17 2287.14,-63.16"/>
</g>
<!-- 12 -->
<g id="node13" class="node">
<title>12</title>
<polygon fill="#c1ffc1" stroke="transparent" points="2683,-76 2516,-76 2516,-34 2683,-34 2683,-76"/>
<polygon fill="none" stroke="black" points="2516.5,-34 2516.5,-76 2559.5,-76 2559.5,-34 2516.5,-34"/>
<text text-anchor="start" x="2522.5" y="-58" font-family="Linux libertine" font-size="10.00">PReLU</text>
<text text-anchor="start" x="2521.5" y="-47" font-family="Linux libertine" font-size="10.00">depth:3</text>
<polygon fill="none" stroke="black" points="2559.5,-55 2559.5,-76 2603.5,-76 2603.5,-55 2559.5,-55"/>
<text text-anchor="start" x="2569" y="-63" font-family="Linux libertine" font-size="10.00">input:</text>
<polygon fill="none" stroke="black" points="2603.5,-55 2603.5,-76 2683.5,-76 2683.5,-55 2603.5,-55"/>
<text text-anchor="start" x="2608.5" y="-63" font-family="Linux libertine" font-size="10.00">(1, 256, 16, 16) </text>
<polygon fill="none" stroke="black" points="2559.5,-34 2559.5,-55 2603.5,-55 2603.5,-34 2559.5,-34"/>
<text text-anchor="start" x="2564.5" y="-42" font-family="Linux libertine" font-size="10.00">output: </text>
<polygon fill="none" stroke="black" points="2603.5,-34 2603.5,-55 2683.5,-55 2683.5,-34 2603.5,-34"/>
<text text-anchor="start" x="2608.5" y="-42" font-family="Linux libertine" font-size="10.00">(1, 256, 16, 16) </text>
</g>
<!-- 11&#45;&gt;12 -->
<g id="edge14" class="edge">
<title>11&#45;&gt;12</title>
<path fill="none" stroke="black" d="M2480.26,-55C2488.64,-55 2497.14,-55 2505.54,-55"/>
<polygon fill="black" stroke="black" points="2505.72,-58.5 2515.72,-55 2505.72,-51.5 2505.72,-58.5"/>
</g>
<!-- 13 -->
<g id="node14" class="node">
<title>13</title>
<polygon fill="#c1ffc1" stroke="transparent" points="2903,-76 2719,-76 2719,-34 2903,-34 2903,-76"/>
<polygon fill="none" stroke="black" points="2719,-34 2719,-76 2779,-76 2779,-34 2719,-34"/>
<text text-anchor="start" x="2724" y="-58" font-family="Linux libertine" font-size="10.00">MaxPool2d</text>
<text text-anchor="start" x="2732.5" y="-47" font-family="Linux libertine" font-size="10.00">depth:3</text>
<polygon fill="none" stroke="black" points="2779,-55 2779,-76 2823,-76 2823,-55 2779,-55"/>
<text text-anchor="start" x="2788.5" y="-63" font-family="Linux libertine" font-size="10.00">input:</text>
<polygon fill="none" stroke="black" points="2823,-55 2823,-76 2903,-76 2903,-55 2823,-55"/>
<text text-anchor="start" x="2828" y="-63" font-family="Linux libertine" font-size="10.00">(1, 256, 16, 16) </text>
<polygon fill="none" stroke="black" points="2779,-34 2779,-55 2823,-55 2823,-34 2779,-34"/>
<text text-anchor="start" x="2784" y="-42" font-family="Linux libertine" font-size="10.00">output: </text>
<polygon fill="none" stroke="black" points="2823,-34 2823,-55 2903,-55 2903,-34 2823,-34"/>
<text text-anchor="start" x="2833.5" y="-42" font-family="Linux libertine" font-size="10.00">(1, 256, 8, 8) </text>
</g>
<!-- 12&#45;&gt;13 -->
<g id="edge15" class="edge">
<title>12&#45;&gt;13</title>
<path fill="none" stroke="black" d="M2683.3,-55C2691.68,-55 2700.27,-55 2708.82,-55"/>
<polygon fill="black" stroke="black" points="2708.82,-58.5 2718.82,-55 2708.82,-51.5 2708.82,-58.5"/>
</g>
<!-- 14 -->
<g id="node15" class="node">
<title>14</title>
<polygon fill="#c1ffc1" stroke="transparent" points="3108,-76 2939,-76 2939,-34 3108,-34 3108,-76"/>
<polygon fill="none" stroke="black" points="2939.5,-34 2939.5,-76 2995.5,-76 2995.5,-34 2939.5,-34"/>
<text text-anchor="start" x="2944.5" y="-58" font-family="Linux libertine" font-size="10.00">Sequential</text>
<text text-anchor="start" x="2951" y="-47" font-family="Linux libertine" font-size="10.00">depth:3</text>
<polygon fill="none" stroke="black" points="2995.5,-55 2995.5,-76 3039.5,-76 3039.5,-55 2995.5,-55"/>
<text text-anchor="start" x="3005" y="-63" font-family="Linux libertine" font-size="10.00">input:</text>
<polygon fill="none" stroke="black" points="3039.5,-55 3039.5,-76 3108.5,-76 3108.5,-55 3039.5,-55"/>
<text text-anchor="start" x="3044.5" y="-63" font-family="Linux libertine" font-size="10.00">(1, 256, 8, 8) </text>
<polygon fill="none" stroke="black" points="2995.5,-34 2995.5,-55 3039.5,-55 3039.5,-34 2995.5,-34"/>
<text text-anchor="start" x="3000.5" y="-42" font-family="Linux libertine" font-size="10.00">output: </text>
<polygon fill="none" stroke="black" points="3039.5,-34 3039.5,-55 3108.5,-55 3108.5,-34 3039.5,-34"/>
<text text-anchor="start" x="3044.5" y="-42" font-family="Linux libertine" font-size="10.00">(1, 384, 8, 8) </text>
</g>
<!-- 13&#45;&gt;14 -->
<g id="edge16" class="edge">
<title>13&#45;&gt;14</title>
<path fill="none" stroke="black" d="M2903.1,-55C2911.56,-55 2920.13,-55 2928.61,-55"/>
<polygon fill="black" stroke="black" points="2928.89,-58.5 2938.89,-55 2928.89,-51.5 2928.89,-58.5"/>
</g>
<!-- 15 -->
<g id="node16" class="node">
<title>15</title>
<polygon fill="#c1ffc1" stroke="transparent" points="3313,-86 3144,-86 3144,-44 3313,-44 3313,-86"/>
<polygon fill="none" stroke="black" points="3144.5,-44 3144.5,-86 3200.5,-86 3200.5,-44 3144.5,-44"/>
<text text-anchor="start" x="3149.5" y="-68" font-family="Linux libertine" font-size="10.00">Sequential</text>
<text text-anchor="start" x="3156" y="-57" font-family="Linux libertine" font-size="10.00">depth:3</text>
<polygon fill="none" stroke="black" points="3200.5,-65 3200.5,-86 3244.5,-86 3244.5,-65 3200.5,-65"/>
<text text-anchor="start" x="3210" y="-73" font-family="Linux libertine" font-size="10.00">input:</text>
<polygon fill="none" stroke="black" points="3244.5,-65 3244.5,-86 3313.5,-86 3313.5,-65 3244.5,-65"/>
<text text-anchor="start" x="3249.5" y="-73" font-family="Linux libertine" font-size="10.00">(1, 384, 8, 8) </text>
<polygon fill="none" stroke="black" points="3200.5,-44 3200.5,-65 3244.5,-65 3244.5,-44 3200.5,-44"/>
<text text-anchor="start" x="3205.5" y="-52" font-family="Linux libertine" font-size="10.00">output: </text>
<polygon fill="none" stroke="black" points="3244.5,-44 3244.5,-65 3313.5,-65 3313.5,-44 3244.5,-44"/>
<text text-anchor="start" x="3249.5" y="-52" font-family="Linux libertine" font-size="10.00">(1, 384, 8, 8) </text>
</g>
<!-- 14&#45;&gt;15 -->
<g id="edge17" class="edge">
<title>14&#45;&gt;15</title>
<path fill="none" stroke="black" d="M3108.24,-59.13C3116.72,-59.54 3125.37,-59.97 3133.94,-60.39"/>
<polygon fill="black" stroke="black" points="3133.79,-63.89 3143.95,-60.88 3134.14,-56.9 3133.79,-63.89"/>
</g>
<!-- 16 -->
<g id="node17" class="node">
<title>16</title>
<polygon fill="aliceblue" stroke="transparent" points="3522,-76 3349,-76 3349,-34 3522,-34 3522,-76"/>
<polygon fill="none" stroke="black" points="3349.5,-34 3349.5,-76 3392.5,-76 3392.5,-34 3349.5,-34"/>
<text text-anchor="start" x="3363" y="-58" font-family="Linux libertine" font-size="10.00">add</text>
<text text-anchor="start" x="3354.5" y="-47" font-family="Linux libertine" font-size="10.00">depth:3</text>
<polygon fill="none" stroke="black" points="3392.5,-55 3392.5,-76 3436.5,-76 3436.5,-55 3392.5,-55"/>
<text text-anchor="start" x="3402" y="-63" font-family="Linux libertine" font-size="10.00">input:</text>
<polygon fill="none" stroke="black" points="3436.5,-55 3436.5,-76 3522.5,-76 3522.5,-55 3436.5,-55"/>
<text text-anchor="start" x="3441.5" y="-63" font-family="Linux libertine" font-size="10.00">2 x (1, 384, 8, 8) </text>
<polygon fill="none" stroke="black" points="3392.5,-34 3392.5,-55 3436.5,-55 3436.5,-34 3392.5,-34"/>
<text text-anchor="start" x="3397.5" y="-42" font-family="Linux libertine" font-size="10.00">output: </text>
<polygon fill="none" stroke="black" points="3436.5,-34 3436.5,-55 3522.5,-55 3522.5,-34 3436.5,-34"/>
<text text-anchor="start" x="3450" y="-42" font-family="Linux libertine" font-size="10.00">(1, 384, 8, 8) </text>
</g>
<!-- 14&#45;&gt;16 -->
<g id="edge18" class="edge">
<title>14&#45;&gt;16</title>
<path fill="none" stroke="black" d="M3108.18,-39.19C3120.16,-37.45 3132.37,-35.97 3144,-35 3218.85,-28.78 3238.14,-28.88 3313,-35 3321.35,-35.68 3329.98,-36.62 3338.63,-37.73"/>
<polygon fill="black" stroke="black" points="3338.38,-41.23 3348.76,-39.1 3339.32,-34.29 3338.38,-41.23"/>
</g>
<!-- 15&#45;&gt;16 -->
<g id="edge19" class="edge">
<title>15&#45;&gt;16</title>
<path fill="none" stroke="black" d="M3313.18,-60.92C3321.61,-60.51 3330.22,-60.09 3338.77,-59.67"/>
<polygon fill="black" stroke="black" points="3338.94,-63.17 3348.76,-59.18 3338.6,-56.17 3338.94,-63.17"/>
</g>
<!-- 17 -->
<g id="node18" class="node">
<title>17</title>
<polygon fill="#c1ffc1" stroke="transparent" points="3714,-76 3558,-76 3558,-34 3714,-34 3714,-76"/>
<polygon fill="none" stroke="black" points="3558,-34 3558,-76 3601,-76 3601,-34 3558,-34"/>
<text text-anchor="start" x="3564" y="-58" font-family="Linux libertine" font-size="10.00">PReLU</text>
<text text-anchor="start" x="3563" y="-47" font-family="Linux libertine" font-size="10.00">depth:3</text>
<polygon fill="none" stroke="black" points="3601,-55 3601,-76 3645,-76 3645,-55 3601,-55"/>
<text text-anchor="start" x="3610.5" y="-63" font-family="Linux libertine" font-size="10.00">input:</text>
<polygon fill="none" stroke="black" points="3645,-55 3645,-76 3714,-76 3714,-55 3645,-55"/>
<text text-anchor="start" x="3650" y="-63" font-family="Linux libertine" font-size="10.00">(1, 384, 8, 8) </text>
<polygon fill="none" stroke="black" points="3601,-34 3601,-55 3645,-55 3645,-34 3601,-34"/>
<text text-anchor="start" x="3606" y="-42" font-family="Linux libertine" font-size="10.00">output: </text>
<polygon fill="none" stroke="black" points="3645,-34 3645,-55 3714,-55 3714,-34 3645,-34"/>
<text text-anchor="start" x="3650" y="-42" font-family="Linux libertine" font-size="10.00">(1, 384, 8, 8) </text>
</g>
<!-- 16&#45;&gt;17 -->
<g id="edge20" class="edge">
<title>16&#45;&gt;17</title>
<path fill="none" stroke="black" d="M3522.12,-55C3530.55,-55 3539.12,-55 3547.56,-55"/>
<polygon fill="black" stroke="black" points="3547.79,-58.5 3557.79,-55 3547.79,-51.5 3547.79,-58.5"/>
</g>
<!-- 18 -->
<g id="node19" class="node">
<title>18</title>
<polygon fill="#c1ffc1" stroke="transparent" points="3923,-76 3750,-76 3750,-34 3923,-34 3923,-76"/>
<polygon fill="none" stroke="black" points="3750.5,-34 3750.5,-76 3810.5,-76 3810.5,-34 3750.5,-34"/>
<text text-anchor="start" x="3755.5" y="-58" font-family="Linux libertine" font-size="10.00">MaxPool2d</text>
<text text-anchor="start" x="3764" y="-47" font-family="Linux libertine" font-size="10.00">depth:3</text>
<polygon fill="none" stroke="black" points="3810.5,-55 3810.5,-76 3854.5,-76 3854.5,-55 3810.5,-55"/>
<text text-anchor="start" x="3820" y="-63" font-family="Linux libertine" font-size="10.00">input:</text>
<polygon fill="none" stroke="black" points="3854.5,-55 3854.5,-76 3923.5,-76 3923.5,-55 3854.5,-55"/>
<text text-anchor="start" x="3859.5" y="-63" font-family="Linux libertine" font-size="10.00">(1, 384, 8, 8) </text>
<polygon fill="none" stroke="black" points="3810.5,-34 3810.5,-55 3854.5,-55 3854.5,-34 3810.5,-34"/>
<text text-anchor="start" x="3815.5" y="-42" font-family="Linux libertine" font-size="10.00">output: </text>
<polygon fill="none" stroke="black" points="3854.5,-34 3854.5,-55 3923.5,-55 3923.5,-34 3854.5,-34"/>
<text text-anchor="start" x="3859.5" y="-42" font-family="Linux libertine" font-size="10.00">(1, 384, 4, 4) </text>
</g>
<!-- 17&#45;&gt;18 -->
<g id="edge21" class="edge">
<title>17&#45;&gt;18</title>
<path fill="none" stroke="black" d="M3714.03,-55C3722.49,-55 3731.18,-55 3739.83,-55"/>
<polygon fill="black" stroke="black" points="3739.95,-58.5 3749.95,-55 3739.95,-51.5 3739.95,-58.5"/>
</g>
<!-- 19 -->
<g id="node20" class="node">
<title>19</title>
<polygon fill="#c1ffc1" stroke="transparent" points="4166,-76 3959,-76 3959,-34 4166,-34 4166,-76"/>
<polygon fill="none" stroke="black" points="3959.5,-34 3959.5,-76 4053.5,-76 4053.5,-34 3959.5,-34"/>
<text text-anchor="start" x="3964.5" y="-58" font-family="Linux libertine" font-size="10.00">AdaptiveAvgPool2d</text>
<text text-anchor="start" x="3990" y="-47" font-family="Linux libertine" font-size="10.00">depth:2</text>
<polygon fill="none" stroke="black" points="4053.5,-55 4053.5,-76 4097.5,-76 4097.5,-55 4053.5,-55"/>
<text text-anchor="start" x="4063" y="-63" font-family="Linux libertine" font-size="10.00">input:</text>
<polygon fill="none" stroke="black" points="4097.5,-55 4097.5,-76 4166.5,-76 4166.5,-55 4097.5,-55"/>
<text text-anchor="start" x="4102.5" y="-63" font-family="Linux libertine" font-size="10.00">(1, 384, 4, 4) </text>
<polygon fill="none" stroke="black" points="4053.5,-34 4053.5,-55 4097.5,-55 4097.5,-34 4053.5,-34"/>
<text text-anchor="start" x="4058.5" y="-42" font-family="Linux libertine" font-size="10.00">output: </text>
<polygon fill="none" stroke="black" points="4097.5,-34 4097.5,-55 4166.5,-55 4166.5,-34 4097.5,-34"/>
<text text-anchor="start" x="4102.5" y="-42" font-family="Linux libertine" font-size="10.00">(1, 384, 1, 1) </text>
</g>
<!-- 18&#45;&gt;19 -->
<g id="edge22" class="edge">
<title>18&#45;&gt;19</title>
<path fill="none" stroke="black" d="M3923.14,-55C3931.49,-55 3940.04,-55 3948.6,-55"/>
<polygon fill="black" stroke="black" points="3948.64,-58.5 3958.64,-55 3948.64,-51.5 3948.64,-58.5"/>
</g>
<!-- 20 -->
<g id="node21" class="node">
<title>20</title>
<polygon fill="#c1ffc1" stroke="transparent" points="4358,-76 4202,-76 4202,-34 4358,-34 4358,-76"/>
<polygon fill="none" stroke="black" points="4202,-34 4202,-76 4245,-76 4245,-34 4202,-34"/>
<text text-anchor="start" x="4208" y="-58" font-family="Linux libertine" font-size="10.00">Flatten</text>
<text text-anchor="start" x="4207" y="-47" font-family="Linux libertine" font-size="10.00">depth:2</text>
<polygon fill="none" stroke="black" points="4245,-55 4245,-76 4289,-76 4289,-55 4245,-55"/>
<text text-anchor="start" x="4254.5" y="-63" font-family="Linux libertine" font-size="10.00">input:</text>
<polygon fill="none" stroke="black" points="4289,-55 4289,-76 4358,-76 4358,-55 4289,-55"/>
<text text-anchor="start" x="4294" y="-63" font-family="Linux libertine" font-size="10.00">(1, 384, 1, 1) </text>
<polygon fill="none" stroke="black" points="4245,-34 4245,-55 4289,-55 4289,-34 4245,-34"/>
<text text-anchor="start" x="4250" y="-42" font-family="Linux libertine" font-size="10.00">output: </text>
<polygon fill="none" stroke="black" points="4289,-34 4289,-55 4358,-55 4358,-34 4289,-34"/>
<text text-anchor="start" x="4305" y="-42" font-family="Linux libertine" font-size="10.00">(1, 384) </text>
</g>
<!-- 19&#45;&gt;20 -->
<g id="edge23" class="edge">
<title>19&#45;&gt;20</title>
<path fill="none" stroke="black" d="M4166.2,-55C4174.76,-55 4183.35,-55 4191.78,-55"/>
<polygon fill="black" stroke="black" points="4191.95,-58.5 4201.95,-55 4191.95,-51.5 4191.95,-58.5"/>
</g>
<!-- 21 -->
<g id="node22" class="node">
<title>21</title>
<polygon fill="#c1ffc1" stroke="transparent" points="4528,-76 4394,-76 4394,-34 4528,-34 4528,-76"/>
<polygon fill="none" stroke="black" points="4394,-34 4394,-76 4437,-76 4437,-34 4394,-34"/>
<text text-anchor="start" x="4402" y="-58" font-family="Linux libertine" font-size="10.00">Linear</text>
<text text-anchor="start" x="4399" y="-47" font-family="Linux libertine" font-size="10.00">depth:2</text>
<polygon fill="none" stroke="black" points="4437,-55 4437,-76 4481,-76 4481,-55 4437,-55"/>
<text text-anchor="start" x="4446.5" y="-63" font-family="Linux libertine" font-size="10.00">input:</text>
<polygon fill="none" stroke="black" points="4481,-55 4481,-76 4528,-76 4528,-55 4481,-55"/>
<text text-anchor="start" x="4486" y="-63" font-family="Linux libertine" font-size="10.00">(1, 384) </text>
<polygon fill="none" stroke="black" points="4437,-34 4437,-55 4481,-55 4481,-34 4437,-34"/>
<text text-anchor="start" x="4442" y="-42" font-family="Linux libertine" font-size="10.00">output: </text>
<polygon fill="none" stroke="black" points="4481,-34 4481,-55 4528,-55 4528,-34 4481,-34"/>
<text text-anchor="start" x="4486" y="-42" font-family="Linux libertine" font-size="10.00">(1, 192) </text>
</g>
<!-- 20&#45;&gt;21 -->
<g id="edge24" class="edge">
<title>20&#45;&gt;21</title>
<path fill="none" stroke="black" d="M4358.21,-55C4366.69,-55 4375.31,-55 4383.78,-55"/>
<polygon fill="black" stroke="black" points="4384,-58.5 4394,-55 4384,-51.5 4384,-58.5"/>
</g>
<!-- 22 -->
<g id="node23" class="node">
<title>22</title>
<polygon fill="#c1ffc1" stroke="transparent" points="4698,-76 4564,-76 4564,-34 4698,-34 4698,-76"/>
<polygon fill="none" stroke="black" points="4564,-34 4564,-76 4607,-76 4607,-34 4564,-34"/>
<text text-anchor="start" x="4570" y="-58" font-family="Linux libertine" font-size="10.00">PReLU</text>
<text text-anchor="start" x="4569" y="-47" font-family="Linux libertine" font-size="10.00">depth:2</text>
<polygon fill="none" stroke="black" points="4607,-55 4607,-76 4651,-76 4651,-55 4607,-55"/>
<text text-anchor="start" x="4616.5" y="-63" font-family="Linux libertine" font-size="10.00">input:</text>
<polygon fill="none" stroke="black" points="4651,-55 4651,-76 4698,-76 4698,-55 4651,-55"/>
<text text-anchor="start" x="4656" y="-63" font-family="Linux libertine" font-size="10.00">(1, 192) </text>
<polygon fill="none" stroke="black" points="4607,-34 4607,-55 4651,-55 4651,-34 4607,-34"/>
<text text-anchor="start" x="4612" y="-42" font-family="Linux libertine" font-size="10.00">output: </text>
<polygon fill="none" stroke="black" points="4651,-34 4651,-55 4698,-55 4698,-34 4651,-34"/>
<text text-anchor="start" x="4656" y="-42" font-family="Linux libertine" font-size="10.00">(1, 192) </text>
</g>
<!-- 21&#45;&gt;22 -->
<g id="edge25" class="edge">
<title>21&#45;&gt;22</title>
<path fill="none" stroke="black" d="M4528.4,-55C4536.68,-55 4545.2,-55 4553.62,-55"/>
<polygon fill="black" stroke="black" points="4553.81,-58.5 4563.81,-55 4553.81,-51.5 4553.81,-58.5"/>
</g>
<!-- 23 -->
<g id="node24" class="node">
<title>23</title>
<polygon fill="#c1ffc1" stroke="transparent" points="4868,-76 4734,-76 4734,-34 4868,-34 4868,-76"/>
<polygon fill="none" stroke="black" points="4734,-34 4734,-76 4777,-76 4777,-34 4734,-34"/>
<text text-anchor="start" x="4742" y="-58" font-family="Linux libertine" font-size="10.00">Linear</text>
<text text-anchor="start" x="4739" y="-47" font-family="Linux libertine" font-size="10.00">depth:2</text>
<polygon fill="none" stroke="black" points="4777,-55 4777,-76 4821,-76 4821,-55 4777,-55"/>
<text text-anchor="start" x="4786.5" y="-63" font-family="Linux libertine" font-size="10.00">input:</text>
<polygon fill="none" stroke="black" points="4821,-55 4821,-76 4868,-76 4868,-55 4821,-55"/>
<text text-anchor="start" x="4826" y="-63" font-family="Linux libertine" font-size="10.00">(1, 192) </text>
<polygon fill="none" stroke="black" points="4777,-34 4777,-55 4821,-55 4821,-34 4777,-34"/>
<text text-anchor="start" x="4782" y="-42" font-family="Linux libertine" font-size="10.00">output: </text>
<polygon fill="none" stroke="black" points="4821,-34 4821,-55 4868,-55 4868,-34 4821,-34"/>
<text text-anchor="start" x="4826" y="-42" font-family="Linux libertine" font-size="10.00">(1, 192) </text>
</g>
<!-- 22&#45;&gt;23 -->
<g id="edge26" class="edge">
<title>22&#45;&gt;23</title>
<path fill="none" stroke="black" d="M4698.4,-55C4706.68,-55 4715.2,-55 4723.62,-55"/>
<polygon fill="black" stroke="black" points="4723.81,-58.5 4733.81,-55 4723.81,-51.5 4723.81,-58.5"/>
</g>
<!-- 24 -->
<g id="node25" class="node">
<title>24</title>
<polygon fill="#c1ffc1" stroke="transparent" points="5038,-76 4904,-76 4904,-34 5038,-34 5038,-76"/>
<polygon fill="none" stroke="black" points="4904,-34 4904,-76 4947,-76 4947,-34 4904,-34"/>
<text text-anchor="start" x="4910" y="-58" font-family="Linux libertine" font-size="10.00">PReLU</text>
<text text-anchor="start" x="4909" y="-47" font-family="Linux libertine" font-size="10.00">depth:2</text>
<polygon fill="none" stroke="black" points="4947,-55 4947,-76 4991,-76 4991,-55 4947,-55"/>
<text text-anchor="start" x="4956.5" y="-63" font-family="Linux libertine" font-size="10.00">input:</text>
<polygon fill="none" stroke="black" points="4991,-55 4991,-76 5038,-76 5038,-55 4991,-55"/>
<text text-anchor="start" x="4996" y="-63" font-family="Linux libertine" font-size="10.00">(1, 192) </text>
<polygon fill="none" stroke="black" points="4947,-34 4947,-55 4991,-55 4991,-34 4947,-34"/>
<text text-anchor="start" x="4952" y="-42" font-family="Linux libertine" font-size="10.00">output: </text>
<polygon fill="none" stroke="black" points="4991,-34 4991,-55 5038,-55 5038,-34 4991,-34"/>
<text text-anchor="start" x="4996" y="-42" font-family="Linux libertine" font-size="10.00">(1, 192) </text>
</g>
<!-- 23&#45;&gt;24 -->
<g id="edge27" class="edge">
<title>23&#45;&gt;24</title>
<path fill="none" stroke="black" d="M4868.4,-55C4876.68,-55 4885.2,-55 4893.62,-55"/>
<polygon fill="black" stroke="black" points="4893.81,-58.5 4903.81,-55 4893.81,-51.5 4893.81,-58.5"/>
</g>
<!-- 25 -->
<g id="node26" class="node">
<title>25</title>
<polygon fill="#c1ffc1" stroke="transparent" points="5208,-76 5074,-76 5074,-34 5208,-34 5208,-76"/>
<polygon fill="none" stroke="black" points="5074,-34 5074,-76 5117,-76 5117,-34 5074,-34"/>
<text text-anchor="start" x="5082" y="-58" font-family="Linux libertine" font-size="10.00">Linear</text>
<text text-anchor="start" x="5079" y="-47" font-family="Linux libertine" font-size="10.00">depth:2</text>
<polygon fill="none" stroke="black" points="5117,-55 5117,-76 5161,-76 5161,-55 5117,-55"/>
<text text-anchor="start" x="5126.5" y="-63" font-family="Linux libertine" font-size="10.00">input:</text>
<polygon fill="none" stroke="black" points="5161,-55 5161,-76 5208,-76 5208,-55 5161,-55"/>
<text text-anchor="start" x="5166" y="-63" font-family="Linux libertine" font-size="10.00">(1, 192) </text>
<polygon fill="none" stroke="black" points="5117,-34 5117,-55 5161,-55 5161,-34 5117,-34"/>
<text text-anchor="start" x="5122" y="-42" font-family="Linux libertine" font-size="10.00">output: </text>
<polygon fill="none" stroke="black" points="5161,-34 5161,-55 5208,-55 5208,-34 5161,-34"/>
<text text-anchor="start" x="5171.5" y="-42" font-family="Linux libertine" font-size="10.00">(1, 1) </text>
</g>
<!-- 24&#45;&gt;25 -->
<g id="edge28" class="edge">
<title>24&#45;&gt;25</title>
<path fill="none" stroke="black" d="M5038.4,-55C5046.68,-55 5055.2,-55 5063.62,-55"/>
<polygon fill="black" stroke="black" points="5063.81,-58.5 5073.81,-55 5063.81,-51.5 5063.81,-58.5"/>
</g>
<!-- 26 -->
<g id="node27" class="node">
<title>26</title>
<polygon fill="lightyellow" stroke="transparent" points="5344,-71 5244,-71 5244,-39 5344,-39 5344,-71"/>
<polygon fill="none" stroke="black" points="5244,-39 5244,-71 5311,-71 5311,-39 5244,-39"/>
<text text-anchor="start" x="5249" y="-58" font-family="Linux libertine" font-size="10.00">output&#45;tensor</text>
<text text-anchor="start" x="5261" y="-47" font-family="Linux libertine" font-size="10.00">depth:0</text>
<polygon fill="none" stroke="black" points="5311,-39 5311,-71 5344,-71 5344,-39 5311,-39"/>
<text text-anchor="start" x="5316" y="-52.5" font-family="Linux libertine" font-size="10.00">(1, 1)</text>
</g>
<!-- 25&#45;&gt;26 -->
<g id="edge29" class="edge">
<title>25&#45;&gt;26</title>
<path fill="none" stroke="black" d="M5208.23,-55C5216.59,-55 5225.1,-55 5233.35,-55"/>
<polygon fill="black" stroke="black" points="5233.62,-58.5 5243.62,-55 5233.62,-51.5 5233.62,-58.5"/>
</g>
</g>
</svg>
